<svg xmlns="http://www.w3.org/2000/svg" viewBox="0 0 256 256" role="img" aria-label="SQL Python analyst practice icon">
  <defs>
    <linearGradient id="bg" x1="36" y1="28" x2="220" y2="228" gradientUnits="userSpaceOnUse">
      <stop offset="0" stop-color="#1f6f9b"/>
      <stop offset="0.58" stop-color="#1f7a57"/>
      <stop offset="1" stop-color="#f0b84f"/>
    </linearGradient>
    <linearGradient id="card" x1="70" y1="62" x2="190" y2="195" gradientUnits="userSpaceOnUse">
      <stop offset="0" stop-color="#ffffff"/>
      <stop offset="1" stop-color="#eef6f8"/>
    </linearGradient>
    <filter id="shadow" x="-20%" y="-20%" width="140%" height="140%">
      <feDropShadow dx="0" dy="10" stdDeviation="10" flood-color="#102230" flood-opacity="0.22"/>
    </filter>
  </defs>
  <rect x="18" y="18" width="220" height="220" rx="48" fill="url(#bg)"/>
  <path d="M67 79c0-13 11-24 24-24h95c13 0 24 11 24 24v99c0 13-11 24-24 24H91c-13 0-24-11-24-24V79z" fill="url(#card)" filter="url(#shadow)"/>
  <path d="M67 82c0-15 12-27 27-27h89c15 0 27 12 27 27v15H67V82z" fill="#153447"/>
  <circle cx="88" cy="76" r="5" fill="#f06b6b"/>
  <circle cx="106" cy="76" r="5" fill="#f0b84f"/>
  <circle cx="124" cy="76" r="5" fill="#46c086"/>
  <path d="M91 122h95" stroke="#c7d6df" stroke-width="10" stroke-linecap="round"/>
  <path d="M91 149h76" stroke="#c7d6df" stroke-width="10" stroke-linecap="round"/>
  <path d="M91 176h52" stroke="#c7d6df" stroke-width="10" stroke-linecap="round"/>
  <path d="M111 132l-22 17 22 17" fill="none" stroke="#1f6f9b" stroke-width="13" stroke-linecap="round" stroke-linejoin="round"/>
  <path d="M165 132l22 17-22 17" fill="none" stroke="#1f7a57" stroke-width="13" stroke-linecap="round" stroke-linejoin="round"/>
  <path d="M144 126l-19 49" fill="none" stroke="#f0b84f" stroke-width="12" stroke-linecap="round"/>
</svg>

